# xmcd
# 
# Track frame offsets:
#     150
#     23028
#     43637
#     53352
#     72233
#     86708
#     110237
#     130681
#     155395
#     173202
#     202695
#     213907
#     235354
#     251913
#     278491
#     300112
# 
# Disc length: 4283
# 
# Revision: 3
# Processed by: cddbd v1.5.2PL0 Copyright (c) Steve Scherf et al.
# Submitted via: fre:ac v1.0.31
# 
DISCID=cd10b910
DTITLE=Willi Resetarits and Xtra Combo - Stubnblues - live im arge beisl
DYEAR=2005
DGENRE=Pop
TTITLE0=Jackie Wilson said (Van Morrison)
TTITLE1=Blues is a woman (Lou Rawls)
TTITLE2=Vom Hundertsten ins Tausendste... (Willi Resetarits)
TTITLE3=Tupelo honey (Van Morrison)
TTITLE4=Herzliabs schens Diandl (Trad.)
TTITLE5=Harbour lights (Bruce Hornsby)
TTITLE6=None of us are free (Barry Mann)
TTITLE7=Hold on (Tom Waits)
TTITLE8=Brown eyed girl (Van Morrison)
TTITLE9=These are the days (Van Morrison)
TTITLE10=Wild nights (Van Morrison)
TTITLE11=Only a dream (Van Morrison)
TTITLE12=Days like this (Van Morrison)
TTITLE13=Muddy water blues (Paul Rodgers)
TTITLE14=Bamboo road (Willy DeVille)
TTITLE15=Dark end of the street (Dan Penn)
EXTD=YEAR: 2005
EXTT0=
EXTT1=
EXTT2=
EXTT3=
EXTT4=
EXTT5=
EXTT6=
EXTT7=
EXTT8=
EXTT9=
EXTT10=
EXTT11=
EXTT12=
EXTT13=
EXTT14=
EXTT15=
PLAYORDER=
